<svg xmlns="http://www.w3.org/2000/svg" viewBox="0 0 500 500"><defs><style>.cls-1{isolation:isolate;}.cls-2{fill:#fff;}.cls-3{fill:#cce1f7;}.cls-4{fill:#3b73ab;}.cls-5{fill:#00528a;}.cls-10,.cls-6,.cls-8,.cls-9{fill:#01305a;}.cls-7{fill:#0284c7;}.cls-16,.cls-8{mix-blend-mode:screen;}.cls-9{opacity:0.2;}.cls-10{opacity:0.1;}.cls-11{fill:#ffc0ad;}.cls-12{fill:#fda084;}.cls-13{fill:#ff7c78;}.cls-14{fill:#d84e5a;}.cls-15{fill:#ff7972;}</style></defs><title>Error404</title><g class="cls-1"><g id="BACKGROUND"><rect class="cls-2" width="500" height="500"/></g><g id="OBJECTS"><path class="cls-3" d="M231.61,144.74c-15.38-55.81-84.72-73.8-124.46-32.08l-1.71,1.83c-57,61.93-30.06,214.54,88.84,253.22s242.56-32,249.5-95.1-47.9-83-133-65.32C262.66,217.26,241.19,179.49,231.61,144.74Z"/><path class="cls-3" d="M351.57,157.6c-15.91,2.59-20.32,16.68-8,26.68,4.06,3.3,9.85,6.05,18.11,7.42,31.47,5.22,48.16-8.7,35.55-26.75C389.42,153.81,367.33,155,351.57,157.6Z"/><path class="cls-3" d="M62.43,251.79c-9.89-12.73-24.38-9.85-27.27,5.72-1,5.14-.6,11.55,2.16,19.46,10.48,30.12,30.69,38.11,40.5,18.4C83.87,283.2,72.23,264.4,62.43,251.79Z"/><path class="cls-3" d="M279.15,129.45l1.66-8.43-7.9-1.55a19.35,19.35,0,0,0-1-6.17l6.5-4.37-4.79-7.13L267.36,106a19.42,19.42,0,0,0-6.39-4.3l1.55-7.9-8.43-1.65-1.6,8.14a18.87,18.87,0,0,0-5.12,1L243,94.77l-7.13,4.79,4.18,6.22a19.42,19.42,0,0,0-4.3,6.39l-6.9-1.35-1.66,8.42,7.15,1.41a19.13,19.13,0,0,0,1.52,6.5l-6.23,4.18,4.79,7.13,6.5-4.37a19.21,19.21,0,0,0,6.28,3.65l-1.56,7.94,8.43,1.65,1.69-8.61a18.87,18.87,0,0,0,5.45-1.44l4.18,6.23,7.13-4.79-4.37-6.5a19,19,0,0,0,2.86-4.37ZM258,126.07a7.87,7.87,0,1,1,2.14-10.92A7.88,7.88,0,0,1,258,126.07Z"/><path class="cls-3" d="M231.53,90.71l.91-4.6-4.32-.85a10.33,10.33,0,0,0-.57-3.37l3.56-2.39-2.62-3.89-3.4,2.28a10.73,10.73,0,0,0-3.5-2.35l.85-4.31-4.6-.9L217,74.77a10.94,10.94,0,0,0-2.8.55l-2.39-3.56-3.89,2.62,2.28,3.4a10.63,10.63,0,0,0-2.35,3.5L204,80.53l-.9,4.61,3.9.77a10.62,10.62,0,0,0,.83,3.55l-3.4,2.28,2.62,3.9,3.55-2.39a10.41,10.41,0,0,0,3.43,2l-.85,4.35,4.6.9.93-4.71a10.59,10.59,0,0,0,3-.78L224,98.4l3.9-2.62-2.39-3.55a10.39,10.39,0,0,0,1.57-2.39ZM220,88.87a4.3,4.3,0,1,1,1.17-6A4.31,4.31,0,0,1,220,88.87Z"/><path class="cls-3" d="M463.1,114.24l.9-4.6-4.31-.85a10.84,10.84,0,0,0-.57-3.37l3.55-2.39-2.62-3.9-3.4,2.29a10.44,10.44,0,0,0-3.49-2.35l.85-4.31-4.61-.91-.87,4.45a10.36,10.36,0,0,0-2.8.54l-2.39-3.55-3.9,2.62,2.29,3.4a10.44,10.44,0,0,0-2.35,3.49l-3.77-.74-.91,4.61,3.91.76a10.38,10.38,0,0,0,.83,3.56L436,115.27l2.62,3.9,3.56-2.39a10.48,10.48,0,0,0,3.43,2l-.86,4.34,4.61.91.92-4.71a10.12,10.12,0,0,0,3-.79l2.29,3.41,3.89-2.62-2.38-3.56a10.85,10.85,0,0,0,1.56-2.38Zm-11.57-1.84a4.3,4.3,0,1,1,1.17-6A4.31,4.31,0,0,1,451.53,112.4Z"/><path class="cls-3" d="M69.43,171.46l.9-4.6L66,166a10.33,10.33,0,0,0-.57-3.37L69,160.25l-2.62-3.89L63,158.64a10.54,10.54,0,0,0-3.49-2.35l.84-4.31-4.6-.91-.87,4.45a10.14,10.14,0,0,0-2.81.55l-2.38-3.56-3.9,2.62,2.29,3.4A10.44,10.44,0,0,0,45.71,162l-3.78-.74-.9,4.61,3.9.76a10.62,10.62,0,0,0,.83,3.56l-3.4,2.28,2.62,3.9L48.53,174A10.41,10.41,0,0,0,52,176l-.85,4.34,4.61.91.92-4.71a10.2,10.2,0,0,0,3-.79l2.29,3.41,3.89-2.62L63.41,173A10.61,10.61,0,0,0,65,170.59Zm-11.57-1.84a4.3,4.3,0,1,1,1.17-6A4.32,4.32,0,0,1,57.86,169.62Z"/><path class="cls-3" d="M249.68,400.45c-76.28,0-143-3.33-179.17-8.29a3.09,3.09,0,0,0-1.27,6c24.7,7.05,59.67,7.54,82,9.94,38.51,4.15,94.5,3,98.43,16.42s4.32,27.63-34.93,25.63c-42.59-2.17-35.5-25.63-35.5-25.63-39.5,1.13-133.5-8.12-143.9-24.11-10.28-15.81,8.56-19.46,9-19.54h0c15.91-8,101.78-14.16,205.33-14.16,114.86,0,208,7.55,208,16.86S364.54,400.45,249.68,400.45Z"/><path class="cls-4" d="M107.15,351.6C98,342.37,78,320.74,65.39,296.17c-18.09-35.25-36.23-32.1-39.78-19.64-9.21,32.23,45,67.26,67.48,80.2Z"/><path class="cls-5" d="M102.2,353.41C86.42,341.57,73.08,327.57,64,317a269.57,269.57,0,0,1-19.5-25.44.87.87,0,0,0-1.46.95,270.89,270.89,0,0,0,19.62,25.6c9,10.44,22.06,24.22,37.59,36Z"/><path class="cls-5" d="M104.89,339.2c-4.25-8.47-12.29-26.2-15.27-44.28-4.46-27-17.05-28.75-22-21.31C54,294.06,86.66,331.67,97.1,342.81Z"/><path class="cls-6" d="M101.92,340.57a171.19,171.19,0,0,1-17.6-32.24,183.06,183.06,0,0,1-7.46-20.85.62.62,0,0,0-.74-.42.6.6,0,0,0-.42.74,185.66,185.66,0,0,0,7.5,21,173.1,173.1,0,0,0,17.61,32.3Z"/><path class="cls-4" d="M405.07,214.55c8.44-9.89,26.76-33,37.49-58.41,15.39-36.5,33.71-34.72,38.19-22.56,11.6,31.44-39.83,70.44-61.27,85Z"/><path class="cls-5" d="M410.14,216C425,203,437.25,188,445.49,176.81A266.07,266.07,0,0,0,463,150a.87.87,0,0,1,1.53.84,270.46,270.46,0,0,1-17.65,27c-8.14,11.08-20.18,25.8-34.78,38.72Z"/><path class="cls-5" d="M406.4,202c3.59-8.76,10.28-27,11.9-45.29,2.42-27.26,14.85-30,20.36-22.91C453.81,153.18,424,193.14,414.44,205Z"/><path class="cls-6" d="M409.46,203.16a171.42,171.42,0,0,0,15.13-33.47,187.24,187.24,0,0,0,5.88-21.35.59.59,0,0,1,.7-.47.6.6,0,0,1,.48.7,188.49,188.49,0,0,1-5.91,21.48,172.44,172.44,0,0,1-15.14,33.54Z"/><path class="cls-5" d="M148.71,111.19c1.58-14.74.35-29-7-25.47s-4.77,28,5.21,44.14l2.08,6.3c-7.07-11.89-21.17-22-27-18.2s4.24,9.59,14.27,13.42c7.63,2.91,12,6.56,14,8.63l9.83,29.77c-11.25-18.8-33.53-34.67-42.69-28.72s6.74,15.23,22.64,21.3c12,4.58,18.88,10.33,22.1,13.63l2,5.94,3.24-.56L155.69,146a42.08,42.08,0,0,1,5.43-12c5.78-9,10.32-19.7,3.47-19.27-5.94.36-10.73,12.68-11,24.89l-4-12.25A61.41,61.41,0,0,1,148.71,111.19Z"/><path class="cls-4" d="M454.47,286.14c4-14.28,10.38-27.06,15.9-21.09s-5.91,27.78-21.14,39.09L445,309.23c11-8.44,27.79-12.59,31.78-7s-7.48,7.35-18.21,7.21c-8.17-.12-13.54,1.68-16.17,2.86l-20.14,24c17.4-13.32,44-19.85,50.28-10.93s-11.88,11.66-28.9,11.43c-12.86-.18-21.36,2.63-25.57,4.51l-4,4.79c-.94-.56-1.87-1.14-2.81-1.71l24-28.6a42.08,42.08,0,0,0-.61-13.2c-2-10.54-2.31-22.12,3.9-19.2,5.39,2.54,5.28,15.75,1.06,27.21l8.28-9.89A61.34,61.34,0,0,0,454.47,286.14Z"/><path class="cls-5" d="M120.8,263.8h16.46c-8.89-1.47-30.94-10.94-32.91-29.92-2.49-24-11-23.75-25.48-26.26s-18.4,1.59-27.56-17.08-29.6-21-29.6-21,18.63,20.32,15.06,35.76,8.79,21.62,18.68,23.56S63,244.08,66.73,252.62c1.72,3.9,8.74,7.94,15.87,11.18Z"/><path class="cls-6" d="M85.15,240.13c.72,7.2,4.86,15.76,11.07,22.9l.68.77h1.87c-.53-.57-1-1.13-1.51-1.67-6-6.83-10.07-15.31-10.75-22.14-1.09-10.86-9.48-18.27-27.23-24-10.3-3.33-13.55-15.9-13.58-16a.69.69,0,0,0-.83-.5.68.68,0,0,0-.5.83c.13.55,3.46,13.44,14.49,17C76,222.83,84.12,229.88,85.15,240.13Z"/><path class="cls-4" d="M112.33,263.8h34.6l0-.11a44.19,44.19,0,0,0,1.65-10.6c.41-12.11.62-42.52-7.21-50.31-9.84-9.79-29.57-13.62-27-28.39s.65-35.22-22.7-38.55S50.15,95.78,50.15,95.78s-7.68,29.63,13.33,52.34,13.18,26,8.94,47.41S63.19,228.63,95.23,245A35.61,35.61,0,0,1,112.33,263.8Z"/><path class="cls-5" d="M94.52,172.81c-1.53,27.71,4.25,43.33,18.75,50.66,9.11,4.6,18.68,14.86,25,26.78a75.68,75.68,0,0,1,5.59,13.55H146a77.68,77.68,0,0,0-5.91-14.51c-6.59-12.45-16.26-22.78-25.87-27.64-13.68-6.91-19.12-21.94-17.63-48.72,1-17.23-15.16-28.75-15.84-29.23a1,1,0,1,0-1.18,1.67C79.7,145.48,95.42,156.73,94.52,172.81Z"/><path class="cls-5" d="M314.16,208.94H331l17.09-11.13c4.21-6.61,7.89-13.82,7.2-18-1.51-9.21-10.76-19-3.53-26.08s14.21-18.94,2.79-29.93-6.9-38.19-6.9-38.19-15.84,13.12-13.33,33.76-3.05,19.37-13.77,29.35-18.05,14.41-7,35.91C317.67,192.65,316.86,201.35,314.16,208.94Z"/><path class="cls-6" d="M333.05,179.37c3.33,6.42,4.53,15.86,3.22,25.24,0,.33-.1.66-.15,1l-1.57,1q.21-1.15.36-2.22c1.25-9,.07-18.33-3.08-24.42-5-9.7-2-20.49,9.71-35,6.81-8.41,2.68-20.72,2.63-20.85a.69.69,0,0,1,.43-.87.69.69,0,0,1,.87.42c.18.54,4.44,13.15-2.86,22.16C331.26,159.89,328.31,170.22,333.05,179.37Z"/><path class="cls-4" d="M377.63,208.94a37,37,0,0,1,6.72-4.41c32-16.33,27-28.05,22.81-49.43s-12.07-24.69,8.94-47.4,13.33-52.35,13.33-52.35S411.19,92.1,387.84,95.42s-25.3,23.77-22.7,38.54-17.12,18.6-27,28.39c-7.11,7.08-7.59,32.86-7.31,46.59Z"/><path class="cls-5" d="M341.8,208.94c6.3-11.54,15.62-21.41,24.51-25.9,14.5-7.32,20.28-22.94,18.75-50.65-.9-16.09,14.82-27.34,15-27.45a1,1,0,0,0,.25-1.42,1,1,0,0,0-1.43-.25c-.68.48-16.8,12-15.84,29.23,1.49,26.79-3.95,41.81-17.63,48.73-9.61,4.85-19.28,15.18-25.87,27.64l0,.07Z"/><rect class="cls-6" x="84.08" y="154.87" width="335.32" height="207.92" rx="13.5"/><path class="cls-2" d="M404.51,177.57V340.09a8.66,8.66,0,0,1-8.66,8.66H107.64a8.66,8.66,0,0,1-5.36-1.85,9.45,9.45,0,0,1-1.08-1A8.58,8.58,0,0,1,99,340.09V177.57a8.66,8.66,0,0,1,8.66-8.66H395.85A8.64,8.64,0,0,1,403.2,173,8.56,8.56,0,0,1,404.51,177.57Z"/><path class="cls-7" d="M203.85,290.73H192V306H163V290.73h-46.1V271.68l37.72-54.6h30.73l-33.53,50.41h12.07V253.9H192v13.59h11.81Z"/><path class="cls-7" d="M208,261.52C208,232.06,224.8,215,248.29,215s40.25,17,40.25,46.48S271.78,308,248.29,308,208,291,208,261.52Zm50.42,0c0-17.14-4.32-22.48-10.16-22.48s-10.16,5.34-10.16,22.48S242.45,284,248.29,284,258.45,278.66,258.45,261.52Z"/><path class="cls-7" d="M382,290.73H370.19V306H341.11V290.73H295V271.68l37.72-54.6h30.73l-33.52,50.41H342V253.9h28.19v13.59H382Z"/><path class="cls-6" d="M450.72,355.56v1.16A26.29,26.29,0,0,1,424.41,383H79.08a26.31,26.31,0,0,1-26.32-26.31v-1.16Z"/><path class="cls-8" d="M207.14,355.56v.26c0,2.09,1.39,3.78,3.12,3.78H291.5c1.72,0,3.11-1.69,3.11-3.78v-.26Z"/><path class="cls-9" d="M404.51,177.57v9.59H99v-9.59a8.54,8.54,0,0,1,1.56-4.95,8.64,8.64,0,0,1,7.1-3.71H395.85a8.69,8.69,0,0,1,8.66,8.66Z"/><rect class="cls-2" x="167.9" y="176.08" width="163.55" height="4.85" rx="0.75"/><path class="cls-6" d="M128.85,178.5v1.8a.67.67,0,0,1-1,.58l-1.56-.9-1.56-.9a.67.67,0,0,1,0-1.16l1.56-.89,1.56-.9a.67.67,0,0,1,1,.58Z"/><path class="cls-6" d="M137,178.5v1.8a.67.67,0,0,0,1,.58l1.56-.9,1.55-.9a.67.67,0,0,0,0-1.16l-1.55-.89-1.56-.9a.67.67,0,0,0-1,.58Z"/><path class="cls-9" d="M402.94,172.62H100.54a8.64,8.64,0,0,1,7.1-3.71H395.85A8.61,8.61,0,0,1,402.94,172.62Z"/><path class="cls-10" d="M342,334.87H157.4a6.54,6.54,0,0,1-6.54-6.54h0a6.53,6.53,0,0,1,6.54-6.53H342a6.53,6.53,0,0,1,6.54,6.53h0A6.54,6.54,0,0,1,342,334.87Z"/><path class="cls-11" d="M367.13,303.69c-1.43,2.72-2.81,5.07-4.14,7.09-9.91,15-17.28,11.79-21.24,7.16a20.65,20.65,0,0,1-3.14-4.95,21.7,21.7,0,0,1-1.73-5.85l1.84.42c2.18,1,5.79,2.38,8.47,2a5.23,5.23,0,0,0,1-.26c2.4-.91,5.67-5.63,7.88-9.23,1.45-2.35,2.45-4.22,2.45-4.22Z"/><path class="cls-12" d="M367.13,303.69c-1.43,2.72-2.81,5.07-4.14,7.09A51.65,51.65,0,0,1,356.05,300c1.45-2.35,2.45-4.22,2.45-4.22Z"/><path class="cls-12" d="M349.33,310s-2,6.13-10.72,3a21.7,21.7,0,0,1-1.73-5.85l1.84.42c2.18,1,5.79,2.38,8.47,2Z"/><path class="cls-11" d="M430.63,325.65c-2,11.54-11.39,3.07-12.2-5.94a59.37,59.37,0,0,1-.2-6.09c0-1.86.13-3.66.26-5.29,0-.31,0-.62.07-.92.35-3.92.84-6.67.84-6.67l6.14-7.55s.71,2.12,1.63,5.37c.84,3,1.85,7,2.62,11.17.23,1.27.44,2.55.62,3.83A41.26,41.26,0,0,1,430.63,325.65Z"/><path class="cls-12" d="M427.17,298.56c-1.82,3.35-4.82,7.79-8.68,9.77,0-.31,0-.62.07-.92.35-3.92.84-6.67.84-6.67l6.14-7.55S426.25,295.31,427.17,298.56Z"/><path class="cls-12" d="M430.41,313.56c-2.22,1.35-9.5.71-12.18.06,0-2.22.17-4.35.33-6.21l11.23,2.32C430,311,430.23,312.28,430.41,313.56Z"/><path class="cls-4" d="M365.87,275s-8.88,15.68-10.34,21c0,0,6.06,10.14,11.57,11.26l2-6.91S369.35,278.67,365.87,275Z"/><path class="cls-4" d="M385.37,266.92,365.87,275l8.62,66.84s26.85,3.77,40.73,0V275l-19-8.47Z"/><path class="cls-5" d="M381.39,303.34a31.56,31.56,0,0,0,14.27,8.47.42.42,0,0,0,.53-.36h0a.42.42,0,0,0-.3-.45,30.73,30.73,0,0,1-13.9-8.25.42.42,0,0,0-.71.23h0A.41.41,0,0,0,381.39,303.34Z"/><path class="cls-5" d="M381.55,297v0a.38.38,0,0,0,.05.19,13.37,13.37,0,0,0,.75,1.17,16.7,16.7,0,0,0,9.6,6.5l.1,0a.38.38,0,0,0,.1-.75,15.83,15.83,0,0,1-9.88-7.34A.39.39,0,0,0,381.55,297Z"/><path class="cls-5" d="M382.25,279.6h0a.38.38,0,0,0,.45.35,27.27,27.27,0,0,0,10.75-4.75,26.61,26.61,0,0,0,5.21-4.91.39.39,0,0,0-.08-.54.38.38,0,0,0-.54.08,27.62,27.62,0,0,1-15.48,9.37A.37.37,0,0,0,382.25,279.6Z"/><path class="cls-11" d="M352.29,384.34l2.09-10.76h-7.15l-1.74,10.16A8.37,8.37,0,0,0,352.29,384.34Z"/><path class="cls-5" d="M347.39,384.23s-1.58-2.08-2.82-2-10.74,7.83-14,8.49-2.61,3.08-2,4.31,26.18-.77,26.18-.77.62-7.62-.25-9.94S350,384.76,347.39,384.23Z"/><path class="cls-2" d="M342.16,389.61a.5.5,0,0,0,.36,0,.46.46,0,0,0,.16-.63,6.92,6.92,0,0,0-2.42-2.47,3.14,3.14,0,0,0-3.25.19.46.46,0,0,0-.09.64.47.47,0,0,0,.65.09,2.25,2.25,0,0,1,2.29-.09,6.35,6.35,0,0,1,2,2.1A.43.43,0,0,0,342.16,389.61Z"/><path class="cls-2" d="M343.51,388.3a.5.5,0,0,0,.36,0,.46.46,0,0,0,.17-.63,7,7,0,0,0-2.42-2.47,3.16,3.16,0,0,0-3.26.19.45.45,0,0,0-.08.64.46.46,0,0,0,.64.09,2.28,2.28,0,0,1,2.29-.1,6.13,6.13,0,0,1,2,2.11A.46.46,0,0,0,343.51,388.3Z"/><path class="cls-2" d="M340.31,390.68a.45.45,0,0,0,.36,0,.46.46,0,0,0,.17-.63,7.25,7.25,0,0,0-2.43-2.47,3.17,3.17,0,0,0-3.25.19.46.46,0,1,0,.56.73,2.25,2.25,0,0,1,2.29-.09,6.24,6.24,0,0,1,2,2.1A.43.43,0,0,0,340.31,390.68Z"/><path class="cls-13" d="M384.72,335.11s-12.23-30.37-19.83-29.18c-11.78,1.86-19.65,38-18.69,71.74l8.08.46s9-31.77,10.66-40.1c0,0,6.24,21.63,20.27,18.62C395.6,354.42,388.83,343.78,384.72,335.11Z"/><path class="cls-14" d="M353.32,376.74l-1-.18c0-.12,2.17-11.94,4.78-23.89,5.31-24.37,7.31-25.51,8-25.89a1.39,1.39,0,0,1,1.28-.11c1.33.58,2,3.43,3,7.73,1.64,7,3.88,16.49,10.05,20.48l-.54.85c-6.53-4.21-8.82-14-10.49-21.1-.81-3.42-1.57-6.65-2.43-7-.05,0-.16-.07-.38.06C362.84,329.22,356.75,357.87,353.32,376.74Z"/><polygon class="cls-14" points="345.4 375.2 355.31 376.02 355.5 376.04 354.95 379.32 345.22 378.64 345.4 375.2"/><path class="cls-13" d="M381.59,356.8s14.22,2.73,33.08-.66a34.92,34.92,0,0,0-10.83-19.35l-25.43,1.84C376.81,344.63,378,350.69,381.59,356.8Z"/><path class="cls-5" d="M377.53,381.94a30,30,0,0,0-4.28-.68c-.92.06-6.78,7.23-8.84,7.72-3.73.91-3.48,6.79-1.17,7,6.66.55,17.88-2.76,17.88-2.76s.7-7.59.15-9.94S379.42,382.55,377.53,381.94Z"/><path class="cls-11" d="M379.52,382.45l2.47-9.67h-7.14l-1.6,9.33S375.58,383.71,379.52,382.45Z"/><path class="cls-2" d="M372.33,388.62a.47.47,0,0,0,.36-.08.46.46,0,0,0,.09-.64,7.09,7.09,0,0,0-2.67-2.2,3.17,3.17,0,0,0-3.21.54.47.47,0,0,0,0,.65.46.46,0,0,0,.65,0,2.28,2.28,0,0,1,2.27-.33,6.23,6.23,0,0,1,2.24,1.87A.48.48,0,0,0,372.33,388.62Z"/><path class="cls-2" d="M373.54,387.18a.45.45,0,0,0,.35-.09.45.45,0,0,0,.1-.64,7,7,0,0,0-2.67-2.19,3.16,3.16,0,0,0-3.21.53.46.46,0,0,0,.63.67,2.27,2.27,0,0,1,2.27-.34,6.12,6.12,0,0,1,2.24,1.88A.5.5,0,0,0,373.54,387.18Z"/><path class="cls-2" d="M370.61,389.88a.47.47,0,0,0,.36-.08.46.46,0,0,0,.09-.64,7.09,7.09,0,0,0-2.67-2.2,3.19,3.19,0,0,0-3.21.54.46.46,0,0,0,.63.67,2.25,2.25,0,0,1,2.27-.34,6.23,6.23,0,0,1,2.24,1.87A.48.48,0,0,0,370.61,389.88Z"/><path class="cls-13" d="M412.93,356.64a11.62,11.62,0,0,1-6.51-.38C397,352.9,392.67,338,392.67,338c-1.62,8.33-11,40.08-11,40.08l-1.46-.19-1-.14-5.53-.73c-1.09-32.65,7.17-69.26,18.94-71.12,7.6-1.2,19.84,29.18,19.84,29.18C416.55,343.78,423.32,354.42,412.93,356.64Z"/><path class="cls-14" d="M407.9,356.68a12,12,0,0,1-1.48-.42c-3.47-5.58-5.27-13.38-6.73-19.66-1.15-5-2.25-9.72-3.68-10.53a.79.79,0,0,0-.69-.05c-1.22.39-4.09,4.44-9.62,27-2.63,10.77-4.82,21.49-5.49,24.88-.14.68-.22,1.07-.22,1.09l-1-.19s.07-.38.2-1c.67-3.32,2.86-14.13,5.52-25,6.49-26.5,9.35-27.44,10.29-27.75a1.8,1.8,0,0,1,1.49.14c1.83,1,2.81,5.29,4.18,11.18C402.2,343,404.12,351.24,407.9,356.68Z"/><polygon class="cls-14" points="373.01 374.75 382.79 376.54 382.97 376.57 382.11 379.78 372.5 378.16 373.01 374.75"/><path class="cls-4" d="M415.22,275l12.65,18.32s-5.62,10.59-11.12,11.7c0,0-5.73-10-6.4-15.12S413.25,275.41,415.22,275Z"/><path class="cls-6" d="M379,246.62c0,7.11,4.38,12,11.49,12s12.07-5.26,12.07-12.37-4.21-12.5-11.32-12.5C382.66,233.76,379,239.52,379,246.62Z"/><path class="cls-6" d="M379.37,242.7s-5.29-5.24-3.31-7.71,4.56-.11,5.35-2.47,1.09-5.39,4.31-4.16,3.36,3.26,6.43,1.46,2.4,1.24,5.1,2.59,4.58,1.12,4.14,3.7,2.59,3.12,1.35,6-2.69,1.41-2.69,1.41Z"/><path class="cls-12" d="M380.55,249.69s-2-2.64-3.44-.46.61,8.61,4.2,7Z"/><path class="cls-15" d="M380.53,254.28a.31.31,0,0,1-.3-.22,4.68,4.68,0,0,0-2.63-2.8.3.3,0,0,1-.18-.39.3.3,0,0,1,.39-.18,5.24,5.24,0,0,1,3,3.21.3.3,0,0,1-.21.37Z"/><path class="cls-15" d="M378.45,253.28a.24.24,0,0,1-.16-.05.3.3,0,0,1-.1-.42,2.94,2.94,0,0,1,1.14-.92.32.32,0,0,1,.41.16.31.31,0,0,1-.16.4,2.12,2.12,0,0,0-.87.69A.31.31,0,0,1,378.45,253.28Z"/><path class="cls-12" d="M400.91,249.69s2-2.64,3.44-.46-.61,8.61-4.2,7Z"/><path class="cls-15" d="M400.93,254.28a.31.31,0,0,0,.3-.22,4.68,4.68,0,0,1,2.63-2.8.3.3,0,0,0,.18-.39.3.3,0,0,0-.39-.18,5.24,5.24,0,0,0-3,3.21.3.3,0,0,0,.21.37Z"/><path class="cls-15" d="M403,253.28a.24.24,0,0,0,.16-.05.3.3,0,0,0,.1-.42,2.94,2.94,0,0,0-1.14-.92.32.32,0,0,0-.41.16.31.31,0,0,0,.16.4,2.12,2.12,0,0,1,.87.69A.31.31,0,0,0,403,253.28Z"/><path class="cls-11" d="M395.59,261.73v6.39s-1.91,3.26-4.49,3.48-4.86-2.8-4.86-2.8v-6.62Z"/><path class="cls-12" d="M395.59,261.73v2.83c-1.73,1.93-4.8,2.41-9.35,1.73v-4.11Z"/><path class="cls-11" d="M379.5,249.48a37.13,37.13,0,0,0,.51,4.21c.86,4.72,2.79,9.36,7,10.84,9.42,3.37,12.79-4.71,14.14-9.43.15-.52.28-1.1.4-1.72.21-1.13.38-2.38.51-3.64.15-1.53.25-3.08.32-4.44a6.66,6.66,0,0,0-4.27-6.53c-3.86-1.49-9.73-2.66-15.3.49a6.69,6.69,0,0,0-3.39,5.68C379.36,246.23,379.38,247.79,379.5,249.48Z"/><path class="cls-6" d="M379.5,249.48a37.13,37.13,0,0,0,.51,4.21c.86,4.72,2.79,9.36,7,10.84,9.42,3.37,12.79-4.71,14.14-9.43.15-.52.28-1.1.4-1.72.21-1.13.38-2.38.51-3.64h-1.38c-.29.88-1.82,6.22-2.32,7-1.07-2.57-6.51-.87-6.51-.87h0a3.49,3.49,0,0,1-1,.16,3.38,3.38,0,0,1-1-.17s-5.38-1.78-6.49.67c-.49-.76-2.26-6.21-2.58-6.79ZM390.76,257c6.15-.83,5.18,2.49,5.18,2.49a11,11,0,0,1-1.72,1.31,7.18,7.18,0,0,1-3.63,1c-.94-.05-1.2.15-3.59-1.14a5.93,5.93,0,0,1-1.26-1h0C385.63,259.06,384.59,256,390.76,257Z"/><path class="cls-6" d="M386.69,250.52c0,.68-.35,1.24-.79,1.24s-.78-.56-.78-1.24.35-1.24.78-1.24S386.69,249.84,386.69,250.52Z"/><path class="cls-6" d="M396,250.5c0,.68-.35,1.23-.78,1.23s-.79-.55-.79-1.23.35-1.24.79-1.24S396,249.81,396,250.5Z"/><path class="cls-6" d="M382.52,247.5s2.58-2,5.08-1.62l.12,1.3s-3.35.64-4.82,1.77A2.22,2.22,0,0,1,382.52,247.5Z"/><path class="cls-6" d="M398.59,247.5s-2.58-2-5.08-1.62l-.12,1.3s3.35.64,4.82,1.77A2.22,2.22,0,0,0,398.59,247.5Z"/><path class="cls-12" d="M390.84,255.31a3,3,0,0,0,1.1-.24.29.29,0,0,0,.16-.39.3.3,0,0,0-.39-.17c-.28.11-.94.29-1.22.12a.34.34,0,0,1-.15-.29c-.11-1.06.18-4.61.18-4.65a.31.31,0,0,0-.28-.33.3.3,0,0,0-.32.28,44.08,44.08,0,0,0-.19,4.77,1,1,0,0,0,.44.74A1.28,1.28,0,0,0,390.84,255.31Z"/><path class="cls-2" d="M390.42,257.53a1.78,1.78,0,0,0-.14,3.55h.52a1.78,1.78,0,0,0-.13-3.55Z"/><path class="cls-6" d="M402,249.74h-1.38c.15-1.38.37-3.82-.77-4.17-3.59-1.1,1.06-3.63-.56-4.9s-5.65-.72-8.45-.81a58.3,58.3,0,0,0-8.46.2c-1.1.25-.49,2.08-.09,3.5s-1.35,3-1.65,4.45a7.07,7.07,0,0,0,0,1.73h-1.14c-.14-1.79-.16-3.45-.14-4.8a6.69,6.69,0,0,1,3.39-5.68c5.57-3.15,11.44-2,15.3-.49a6.66,6.66,0,0,1,4.27,6.53C402.27,246.66,402.17,248.21,402,249.74Z"/><path class="cls-5" d="M464.81,356.09c-1.71,6.66-6.49,11.72-13.81,14.62a35.15,35.15,0,0,1-5.42,1.64l.17-.23a25.86,25.86,0,0,0,2.87-5.08c4.84-1.76,10.33-5.22,12.07-12,1.67-6.52-1-16.29-6.87-24.87-4.64-6.8-15.17-18.55-33.58-20.83-16.07-2-26.51.46-35.73,2.61-7.83,1.83-15.22,3.56-24.27,2A108.45,108.45,0,0,1,344,309.58c-8.28-2.74-13.75-4.55-22.43-1-14.65,6-21.19,30.88-21.25,31.13l-4.12-1.05c.29-1.11,7.12-27.2,23.75-34,10.14-4.15,16.87-1.93,25.39.89A103.68,103.68,0,0,0,361,309.73c8.2,1.44,14.86-.12,22.58-1.93,9.55-2.23,20.39-4.76,37.21-2.68a50.35,50.35,0,0,1,21.77,8,54.63,54.63,0,0,1,14.8,14.63C463.93,337.46,466.8,348.31,464.81,356.09Z"/><path class="cls-13" d="M260,379l9.53-30.14A24.37,24.37,0,0,1,300.09,333h0A24.37,24.37,0,0,1,316,363.59l-9.53,30.13Z"/><path class="cls-11" d="M334.78,307.62a34.18,34.18,0,0,1,2.47-4.46c.84-1.3,2.79-1.93,3-.38.17,1.23-.71,2.16-.89,3.36,0,0,.43-.68,1.39-2.45.87-1.61,2.06-1.49,2.24-.27s-.17,1.1-.46,2c-.38,1.15-.91,2.59-.91,2.59a11.23,11.23,0,0,1,1.83-3.59c.65-.88,1.29-1.85,2.25-.49.49.68-.15,2.54-.67,4.53,0,0,1-2.66,2.37-3.35,1.05-.54,1.59-.06,1.18,1.4a31,31,0,0,1-1.26,3.54c-.4,1.12-1.87,2.72-3,2.35s-1.42-1.18-2.21-1.24-2.07,0-2.61-.48a2.79,2.79,0,0,0-2-.63C336.55,310,334.73,308.82,334.78,307.62Z"/><path class="cls-11" d="M417.29,309.47a33.94,33.94,0,0,1,1.76-4.79c.63-1.41,2.21-2.43,2.67-.92.35,1.19-.14,2.33-.13,3.54,0,0,.32-.74,1-2.64.61-1.72,1.8-1.78,2.16-.61s0,1.11-.14,2c-.2,1.2-.51,2.7-.51,2.7a11.55,11.55,0,0,1,1.26-3.83c.51-1,1-2,2.15-.83.58.6.24,2.54,0,4.58,0,0,.24-2.44,1.45-3.32,1-.7,1.94-.66,1.76.85a31.22,31.22,0,0,1-.71,3.69c-.22,1.17-1.42,3-2.63,2.79s-1.58-.95-2.38-.89-2,.33-2.65-.07a2.79,2.79,0,0,0-2.09-.31C419.4,311.54,417.42,310.66,417.29,309.47Z"/><path class="cls-5" d="M255.25,408.14a3,3,0,0,1-3,3H240.3v-6h11.95A3,3,0,0,1,255.25,408.14Z"/><path class="cls-5" d="M255.25,429.48a3,3,0,0,1-.88,2.12,3,3,0,0,1-2.12.88H240.3v-6h11.95A3,3,0,0,1,255.25,429.48Z"/><rect class="cls-6" x="240.3" y="405.14" width="5.45" height="6"/><rect class="cls-6" x="240.3" y="426.48" width="5.45" height="6"/><path class="cls-5" d="M192.88,415.3l-.17,4.75c-49.53-1.74-87.95-5.35-114.17-10.74C56.05,404.69,42,398.75,35.48,391.16A16.55,16.55,0,0,1,31.35,378c1-8.17,8.26-14.2,21.61-18a26.54,26.54,0,0,0,1,4.65c-9,2.58-17,6.86-17.91,13.9a11.84,11.84,0,0,0,3,9.52c5.69,6.66,19.29,12.24,40.4,16.58C105.46,410,143.61,413.57,192.88,415.3Z"/><path class="cls-13" d="M240.3,443.18H208.69a24.37,24.37,0,0,1-24.37-24.37h0a24.38,24.38,0,0,1,24.37-24.38H240.3Z"/><path class="cls-7" d="M457.13,228v16.17a3.88,3.88,0,0,1-3.88,3.87H423.9L415,251.17a1.13,1.13,0,0,1-1.44-1.47l3.36-8.65V228a3.87,3.87,0,0,1,3.87-3.87h32.42A3.88,3.88,0,0,1,457.13,228Z"/><g class="cls-16"><circle class="cls-7" cx="428.82" cy="236.5" r="2.8"/><circle class="cls-7" cx="437.69" cy="236.5" r="2.8"/><circle class="cls-7" cx="446.55" cy="236.5" r="2.8"/></g><path class="cls-13" d="M308.87,129.55a6.62,6.62,0,1,1,6.61,6.61A6.62,6.62,0,0,1,308.87,129.55Zm2.08,0a4.54,4.54,0,1,0,4.53-4.53A4.54,4.54,0,0,0,311,129.55Z"/><path class="cls-13" d="M286.78,101.24a6.61,6.61,0,1,1,6.61,6.61A6.61,6.61,0,0,1,286.78,101.24Zm2.07,0a4.54,4.54,0,1,0,4.54-4.54A4.53,4.53,0,0,0,288.85,101.24Z"/><path class="cls-4" d="M288.85,132.88a1,1,0,0,0,1-1v-4.57a1,1,0,1,0-2.08,0v4.57A1,1,0,0,0,288.85,132.88Z"/><path class="cls-4" d="M288.85,140.88a1,1,0,0,0,1-1v-4.57a1,1,0,0,0-2.08,0v4.57A1,1,0,0,0,288.85,140.88Z"/><path class="cls-4" d="M282.43,134.59h4.11a1,1,0,1,0,0-2.07h-4.11a1,1,0,1,0,0,2.07Z"/><path class="cls-4" d="M291.16,134.59h4.11a1,1,0,1,0,0-2.07h-4.11a1,1,0,1,0,0,2.07Z"/><path class="cls-5" d="M316.76,102.41a1,1,0,0,0,1-1V96.8a1,1,0,0,0-2.08,0v4.57A1,1,0,0,0,316.76,102.41Z"/><path class="cls-5" d="M316.76,110.41a1,1,0,0,0,1-1V104.8a1,1,0,0,0-2.08,0v4.57A1,1,0,0,0,316.76,110.41Z"/><path class="cls-5" d="M310.34,104.12h4.11a1,1,0,0,0,0-2.07h-4.11a1,1,0,1,0,0,2.07Z"/><path class="cls-5" d="M319.07,104.12h4.11a1,1,0,0,0,0-2.07h-4.11a1,1,0,1,0,0,2.07Z"/><path class="cls-13" d="M117.79,84.26a6.61,6.61,0,1,1,6.61,6.61A6.62,6.62,0,0,1,117.79,84.26Zm2.07,0a4.54,4.54,0,1,0,4.54-4.54A4.55,4.55,0,0,0,119.86,84.26Z"/><path class="cls-4" d="M92.37,96.7A6.61,6.61,0,1,1,99,103.31,6.61,6.61,0,0,1,92.37,96.7Zm2.07,0A4.54,4.54,0,1,0,99,92.16,4.55,4.55,0,0,0,94.44,96.7Z"/><path class="cls-13" d="M88.56,114.49a1,1,0,0,0,1-1v-4.58a1,1,0,0,0-2.07,0v4.58A1,1,0,0,0,88.56,114.49Z"/><path class="cls-13" d="M88.56,122.5a1,1,0,0,0,1-1v-4.57a1,1,0,1,0-2.07,0v4.57A1,1,0,0,0,88.56,122.5Z"/><path class="cls-13" d="M82.15,116.21h4.1a1,1,0,0,0,0-2.08h-4.1a1,1,0,0,0,0,2.08Z"/><path class="cls-13" d="M90.87,116.21H95a1,1,0,0,0,0-2.08H90.87a1,1,0,0,0,0,2.08Z"/><path class="cls-5" d="M107.15,71.72a1,1,0,0,0,1-1V66.11a1,1,0,1,0-2.07,0v4.57A1,1,0,0,0,107.15,71.72Z"/><path class="cls-5" d="M107.15,79.72a1,1,0,0,0,1-1V74.11a1,1,0,0,0-2.07,0v4.58A1,1,0,0,0,107.15,79.72Z"/><path class="cls-5" d="M100.73,73.44h4.11a1,1,0,0,0,0-2.08h-4.11a1,1,0,0,0,0,2.08Z"/><path class="cls-5" d="M109.46,73.44h4.11a1,1,0,0,0,0-2.08h-4.11a1,1,0,0,0,0,2.08Z"/></g></g></svg>